# xmcd
#
# Track frame offsets: 
#        150
#        22603
#        46737
#        61507
#        88022
#        108467
#        141962
#        156968
#        178840
#        203364
#        223564
#        243546
#        249675
#
# Disc length: 3569 seconds
#
# Revision: 0
# Processed by: cddbd v1.5.2PL0 Copyright (c) Steve Scherf et al.
# Submitted via: ExactAudioCopy v0.95a5
#
DISCID=a70def0d
DTITLE=Bad News Blues Band - Live at Hot Licks cd 1
DYEAR=2007
DGENRE=Blues
TTITLE0=Ride with Me
TTITLE1=Get a Job
TTITLE2=Cold Cold Ground
TTITLE3=We Need the Water
TTITLE4=Para Donde Vas
TTITLE5=Got a lot of Drinkin'to Do
TTITLE6=Days of Old
TTITLE7=Nightlife
TTITLE8=Love with Someone Else
TTITLE9=Don't look Up
TTITLE10=Hey Baby
TTITLE11=Mikey for Mayor
TTITLE12=Push'll Come To Shove
EXTD=
EXTT0=
EXTT1=
EXTT2=
EXTT3=
EXTT4=
EXTT5=
EXTT6=
EXTT7=
EXTT8=
EXTT9=
EXTT10=
EXTT11=
EXTT12=
PLAYORDER=
